<!-- Generated by IcoMoon.io -->
<svg version="1.1" xmlns="http://www.w3.org/2000/svg" width="36" height="42" viewBox="0 0 36 42">
<title>facebook</title>
<path d="M29.25 3c3.727 0 6.75 3.023 6.75 6.75v22.5c0 3.727-3.023 6.75-6.75 6.75h-4.406v-13.945h4.664l0.703-5.437h-5.367v-3.469c0-1.57 0.422-2.625 2.695-2.625l2.859-0.023v-4.852c-0.492-0.070-2.203-0.211-4.172-0.211-4.148 0-7.008 2.531-7.008 7.172v4.008h-4.688v5.437h4.688v13.945h-12.469c-3.727 0-6.75-3.023-6.75-6.75v-22.5c0-3.727 3.023-6.75 6.75-6.75h22.5z"></path>
</svg>
