<svg version="1.1" xmlns="http://www.w3.org/2000/svg" width="36" height="42" viewBox="0 0 36 42">
<title>google-plus</title>
<path d="M21.492 21.211c0-0.586-0.070-1.055-0.141-1.5h-8.484v3.094h5.086c-0.187 1.313-1.523 3.867-5.086 3.867-3.094 0-5.602-2.531-5.602-5.672s2.508-5.672 5.602-5.672c1.734 0 2.906 0.727 3.586 1.383l2.438-2.367c-1.57-1.453-3.609-2.344-6.023-2.344-4.992 0-9 4.031-9 9s4.008 9 9 9c5.18 0 8.625-3.656 8.625-8.789zM29.578 22.289h2.555v-2.578h-2.555v-2.578h-2.578v2.578h-2.578v2.578h2.578v2.578h2.578v-2.578zM36 9.75v22.5c0 3.727-3.023 6.75-6.75 6.75h-22.5c-3.727 0-6.75-3.023-6.75-6.75v-22.5c0-3.727 3.023-6.75 6.75-6.75h22.5c3.727 0 6.75 3.023 6.75 6.75z"></path>
</svg>
