<!-- Generated by IcoMoon.io -->
<svg version="1.1" xmlns="http://www.w3.org/2000/svg" width="36" height="42" viewBox="0 0 36 42">
<title>github</title>
<path d="M18 3c9.938 0 18 8.062 18 18 0 7.945-5.156 14.695-12.305 17.086-0.914 0.164-1.242-0.398-1.242-0.867 0-0.586 0.023-2.531 0.023-4.945 0-1.688-0.562-2.766-1.219-3.328 4.008-0.445 8.227-1.969 8.227-8.883 0-1.969-0.703-3.562-1.852-4.828 0.187-0.469 0.797-2.297-0.187-4.781-1.5-0.469-4.945 1.852-4.945 1.852-1.43-0.398-2.977-0.609-4.5-0.609s-3.070 0.211-4.5 0.609c0 0-3.445-2.32-4.945-1.852-0.984 2.484-0.375 4.313-0.187 4.781-1.148 1.266-1.852 2.859-1.852 4.828 0 6.891 4.195 8.437 8.203 8.883-0.516 0.469-0.984 1.266-1.148 2.414-1.031 0.469-3.656 1.266-5.227-1.5-0.984-1.711-2.766-1.852-2.766-1.852-1.758-0.023-0.117 1.102-0.117 1.102 1.172 0.539 1.992 2.625 1.992 2.625 1.055 3.211 6.070 2.133 6.070 2.133 0 1.5 0.023 2.906 0.023 3.352 0 0.469-0.328 1.031-1.242 0.867-7.148-2.391-12.305-9.141-12.305-17.086 0-9.938 8.062-18 18-18zM6.82 28.852c0.047-0.094-0.023-0.211-0.164-0.281-0.141-0.047-0.258-0.023-0.305 0.047-0.047 0.094 0.023 0.211 0.164 0.281 0.117 0.070 0.258 0.047 0.305-0.047zM7.547 29.648c0.094-0.070 0.070-0.234-0.047-0.375-0.117-0.117-0.281-0.164-0.375-0.070-0.094 0.070-0.070 0.234 0.047 0.375 0.117 0.117 0.281 0.164 0.375 0.070zM8.25 30.703c0.117-0.094 0.117-0.281 0-0.445-0.094-0.164-0.281-0.234-0.398-0.141-0.117 0.070-0.117 0.258 0 0.422s0.305 0.234 0.398 0.164zM9.234 31.687c0.094-0.094 0.047-0.305-0.094-0.445-0.164-0.164-0.375-0.187-0.469-0.070-0.117 0.094-0.070 0.305 0.094 0.445 0.164 0.164 0.375 0.187 0.469 0.070zM10.57 32.273c0.047-0.141-0.094-0.305-0.305-0.375-0.187-0.047-0.398 0.023-0.445 0.164s0.094 0.305 0.305 0.352c0.187 0.070 0.398 0 0.445-0.141zM12.047 32.391c0-0.164-0.187-0.281-0.398-0.258-0.211 0-0.375 0.117-0.375 0.258 0 0.164 0.164 0.281 0.398 0.258 0.211 0 0.375-0.117 0.375-0.258zM13.406 32.156c-0.023-0.141-0.211-0.234-0.422-0.211-0.211 0.047-0.352 0.187-0.328 0.352 0.023 0.141 0.211 0.234 0.422 0.187s0.352-0.187 0.328-0.328z"></path>
</svg>
