<!-- Generated by IcoMoon.io -->
<svg version="1.1" xmlns="http://www.w3.org/2000/svg" width="36" height="42" viewBox="0 0 36 42">
<title>linkedin</title>
<path d="M5.555 33.141h5.414v-16.266h-5.414v16.266zM11.32 11.859c-0.023-1.594-1.172-2.812-3.023-2.812s-3.070 1.219-3.070 2.812c0 1.547 1.172 2.812 3 2.812h0.023c1.898 0 3.070-1.266 3.070-2.812zM25.031 33.141h5.414v-9.328c0-4.992-2.672-7.313-6.234-7.313-2.906 0-4.195 1.617-4.898 2.742h0.047v-2.367h-5.414s0.070 1.523 0 16.266v0h5.414v-9.094c0-0.469 0.023-0.961 0.164-1.313 0.398-0.961 1.289-1.969 2.789-1.969 1.945 0 2.719 1.477 2.719 3.68v8.695zM36 9.75v22.5c0 3.727-3.023 6.75-6.75 6.75h-22.5c-3.727 0-6.75-3.023-6.75-6.75v-22.5c0-3.727 3.023-6.75 6.75-6.75h22.5c3.727 0 6.75 3.023 6.75 6.75z"></path>
</svg>
