<!-- Generated by IcoMoon.io -->
<svg version="1.1" xmlns="http://www.w3.org/2000/svg" width="39" height="42" viewBox="0 0 39 42">
<title>twitter</title>
<path d="M37.969 9.563c-1.031 1.5-2.32 2.836-3.797 3.914 0.023 0.328 0.023 0.656 0.023 0.984 0 10.008-7.617 21.539-21.539 21.539-4.289 0-8.273-1.242-11.625-3.398 0.609 0.070 1.195 0.094 1.828 0.094 3.539 0 6.797-1.195 9.398-3.234-3.328-0.070-6.117-2.25-7.078-5.25 0.469 0.070 0.937 0.117 1.43 0.117 0.68 0 1.359-0.094 1.992-0.258-3.469-0.703-6.070-3.75-6.070-7.43v-0.094c1.008 0.562 2.18 0.914 3.422 0.961-2.039-1.359-3.375-3.68-3.375-6.305 0-1.406 0.375-2.695 1.031-3.82 3.727 4.594 9.328 7.594 15.609 7.922-0.117-0.562-0.187-1.148-0.187-1.734 0-4.172 3.375-7.57 7.57-7.57 2.18 0 4.148 0.914 5.531 2.391 1.711-0.328 3.352-0.961 4.805-1.828-0.562 1.758-1.758 3.234-3.328 4.172 1.523-0.164 3-0.586 4.359-1.172z"></path>
</svg>
