<!-- Generated by IcoMoon.io -->
<svg version="1.1" xmlns="http://www.w3.org/2000/svg" width="42" height="42" viewBox="0 0 42 42">
<title>youtube</title>
<path d="M16.664 26.437l11.344-5.859-11.344-5.93v11.789zM21 6.234c8.836 0 14.695 0.422 14.695 0.422 0.82 0.094 2.625 0.094 4.219 1.781 0 0 1.289 1.266 1.664 4.172 0.445 3.398 0.422 6.797 0.422 6.797v3.187s0.023 3.398-0.422 6.797c-0.375 2.883-1.664 4.172-1.664 4.172-1.594 1.664-3.398 1.664-4.219 1.758 0 0-5.859 0.445-14.695 0.445v0c-10.922-0.094-14.273-0.422-14.273-0.422-0.937-0.164-3.047-0.117-4.641-1.781 0 0-1.289-1.289-1.664-4.172-0.445-3.398-0.422-6.797-0.422-6.797v-3.187s-0.023-3.398 0.422-6.797c0.375-2.906 1.664-4.172 1.664-4.172 1.594-1.688 3.398-1.688 4.219-1.781 0 0 5.859-0.422 14.695-0.422v0z"></path>
</svg>
