<?xml version="1.0" standalone="no"?>
<!DOCTYPE svg PUBLIC "-//W3C//DTD SVG 20010904//EN"
 "http://www.w3.org/TR/2001/REC-SVG-20010904/DTD/svg10.dtd">
<svg version="1.1" xmlns="http://www.w3.org/2000/svg"
 width="1951.000000pt" height="1913.000000pt" viewBox="0 0 1951.000000 1913.000000"
 preserveAspectRatio="xMidYMid meet">
<g transform="translate(0.000000,1913.000000) scale(0.100000,-0.100000)"
fill="#bbbbbb" stroke="none">
<path d="M9585 18773 c-192 -3 -496 -20 -700 -39 -1450 -135 -2825 -597 -4049
-1362 -1460 -912 -2668 -2271 -3394 -3817 -759 -1617 -1038 -3380 -816 -5165
210 -1695 881 -3287 1939 -4605 235 -293 365 -436 669 -741 371 -371 598 -568
981 -856 1356 -1018 2990 -1641 4700 -1792 579 -52 1289 -46 1850 14 2649 285
5004 1665 6530 3825 901 1276 1466 2795 1624 4365 37 360 45 550 45 965 0 415
-9 606 -45 965 -141 1393 -595 2738 -1322 3910 -902 1457 -2176 2616 -3707
3374 -1336 662 -2767 981 -4305 959z m-1711 -4546 c760 -1760 2159 -4900 2699
-6057 382 -820 502 -1054 664 -1297 292 -440 515 -636 813 -714 168 -43 438
-37 646 16 196 50 326 119 452 239 142 137 233 295 290 505 23 88 26 114 26
296 1 178 -2 210 -22 290 -83 319 -306 554 -731 769 -80 41 -335 153 -566 249
-584 243 -793 350 -1050 541 -148 109 -365 326 -458 456 -79 112 -195 341
-231 457 -54 174 -68 266 -73 488 -4 165 -2 234 11 323 56 380 212 698 480
979 429 450 1002 683 1679 683 194 0 312 -11 485 -46 524 -105 986 -424 1339
-924 69 -98 183 -283 183 -296 0 -5 -156 -101 -346 -214 -191 -113 -409 -242
-485 -287 l-137 -81 -62 101 c-222 369 -393 518 -678 590 -76 19 -113 21 -292
21 -189 0 -212 -2 -302 -26 -107 -29 -240 -88 -315 -139 -78 -53 -192 -169
-243 -245 -67 -103 -101 -213 -107 -349 -10 -222 67 -389 250 -547 164 -141
267 -193 867 -437 744 -303 1048 -471 1368 -752 283 -249 493 -596 582 -961
49 -200 63 -329 63 -563 0 -564 -146 -1017 -460 -1428 -282 -368 -709 -662
-1148 -791 -255 -74 -392 -91 -750 -91 -370 0 -523 21 -785 106 -348 114 -705
355 -939 635 -166 199 -438 638 -620 1002 -256 511 -521 1114 -1503 3411 -395
926 -722 1690 -726 1697 -5 9 -453 -979 -1153 -2539 l-1146 -2552 -647 -3
c-614 -2 -646 -1 -638 15 5 10 816 1752 1802 3871 987 2118 1796 3852 1799
3852 3 0 55 -114 115 -253z"/>
</g>
</svg>
