<svg version="1.1" xmlns="http://www.w3.org/2000/svg" width="42" height="42" viewBox="0 0 36 42">
	<title>instagram</title>
	<path d="M24 21c0-3.305-2.695-6-6-6s-6 2.695-6 6 2.695 6 6 6 6-2.695 6-6zM27.234 21c0 5.109-4.125 9.234-9.234 9.234s-9.234-4.125-9.234-9.234 4.125-9.234 9.234-9.234 9.234 4.125 9.234 9.234zM29.766 11.391c0 1.195-0.961 2.156-2.156 2.156s-2.156-0.961-2.156-2.156 0.961-2.156 2.156-2.156 2.156 0.961 2.156 2.156zM18 6.234c-2.625 0-8.25-0.211-10.617 0.727-0.82 0.328-1.43 0.727-2.063 1.359s-1.031 1.242-1.359 2.063c-0.937 2.367-0.727 7.992-0.727 10.617s-0.211 8.25 0.727 10.617c0.328 0.82 0.727 1.43 1.359 2.063s1.242 1.031 2.063 1.359c2.367 0.937 7.992 0.727 10.617 0.727s8.25 0.211 10.617-0.727c0.82-0.328 1.43-0.727 2.063-1.359s1.031-1.242 1.359-2.063c0.937-2.367 0.727-7.992 0.727-10.617s0.211-8.25-0.727-10.617c-0.328-0.82-0.727-1.43-1.359-2.063s-1.242-1.031-2.063-1.359c-2.367-0.937-7.992-0.727-10.617-0.727zM36 21c0 2.484 0.023 4.945-0.117 7.43-0.141 2.883-0.797 5.437-2.906 7.547s-4.664 2.766-7.547 2.906c-2.484 0.141-4.945 0.117-7.43 0.117s-4.945 0.023-7.43-0.117c-2.883-0.141-5.437-0.797-7.547-2.906s-2.766-4.664-2.906-7.547c-0.141-2.484-0.117-4.945-0.117-7.43s-0.023-4.945 0.117-7.43c0.141-2.883 0.797-5.437 2.906-7.547s4.664-2.766 7.547-2.906c2.484-0.141 4.945-0.117 7.43-0.117s4.945-0.023 7.43 0.117c2.883 0.141 5.437 0.797 7.547 2.906s2.766 4.664 2.906 7.547c0.141 2.484 0.117 4.945 0.117 7.43z"></path>
</svg>