<?xml version="1.0" standalone="no"?>
<!DOCTYPE svg PUBLIC "-//W3C//DTD SVG 20010904//EN"
 "http://www.w3.org/TR/2001/REC-SVG-20010904/DTD/svg10.dtd">
<svg version="1.0" xmlns="http://www.w3.org/2000/svg"
 width="701.000000pt" height="250.000000pt" viewBox="0 0 701.000000 250.000000"
 preserveAspectRatio="xMidYMid meet">
<metadata>
Created by potrace 1.15, written by Peter Selinger 2001-2017
</metadata>
<g transform="translate(0.000000,250.000000) scale(0.100000,-0.100000)"
fill="#ffffff" stroke="none">
<path d="M5225 2077 c-7 -19 -415 -1594 -415 -1600 0 -8 140 -40 147 -33 11
11 421 1601 414 1607 -3 4 -37 14 -74 22 -51 11 -69 12 -72 4z"/>
<path d="M2927 1889 c-130 -14 -246 -91 -295 -197 -21 -46 -23 -64 -20 -140 7
-179 89 -256 367 -348 148 -49 209 -86 239 -144 41 -81 21 -186 -46 -242 -56
-47 -110 -61 -219 -56 -108 5 -166 24 -250 84 l-47 34 -39 -38 c-64 -62 -66
-71 -21 -110 93 -81 223 -122 385 -122 118 1 169 10 243 45 79 37 131 88 168
163 30 61 33 74 33 162 0 84 -3 102 -28 152 -51 103 -126 153 -352 229 -195
66 -255 116 -255 214 0 61 29 106 90 138 44 23 65 27 130 27 89 0 140 -15 224
-67 l60 -37 49 55 48 54 -37 33 c-102 88 -256 128 -427 111z"/>
<path d="M1887 1863 c-3 -5 -90 -276 -195 -603 -105 -327 -194 -603 -197 -613
-7 -15 2 -17 86 -17 l94 0 46 153 45 152 230 3 230 2 16 -52 c9 -29 31 -99 48
-155 l31 -103 95 0 c73 0 95 3 92 13 -3 6 -92 285 -199 620 l-193 607 -113 0
c-61 0 -114 -3 -116 -7z m201 -458 c44 -148 84 -282 87 -297 l7 -28 -187 0
c-145 0 -186 3 -182 13 2 6 44 146 93 309 48 164 91 292 95 285 4 -6 43 -133
87 -282z"/>
<path d="M3743 1808 l-73 -10 0 -109 0 -109 -80 0 -80 0 0 -65 0 -65 79 0 79
0 4 -328 3 -328 30 -59 c23 -45 42 -66 79 -90 44 -27 60 -30 140 -33 74 -3
102 0 148 18 82 31 86 39 48 105 -25 43 -36 55 -49 49 -86 -36 -111 -40 -161
-23 -57 20 -60 41 -60 384 l0 305 104 0 103 0 7 46 c12 90 20 84 -104 84
l-110 0 0 120 c0 108 -2 120 -17 119 -10 -1 -51 -6 -90 -11z"/>
<path d="M1002 1473 l-333 -156 3 -89 3 -89 330 -154 c181 -85 332 -151 336
-147 10 12 61 133 57 136 -1 2 -130 59 -285 127 -156 68 -283 126 -283 129 0
3 125 59 278 124 152 66 281 122 285 126 5 4 -6 39 -25 78 l-33 70 -333 -155z"/>
<path d="M5677 1561 c-16 -39 -27 -74 -24 -78 3 -5 130 -62 281 -128 152 -65
276 -122 276 -125 0 -4 -126 -63 -280 -130 -154 -68 -280 -128 -280 -133 0 -7
46 -120 55 -135 1 -1 150 67 331 151 l329 153 0 93 0 93 -330 154 c-181 85
-330 154 -330 154 0 0 -13 -31 -28 -69z"/>
</g>
</svg>
